<svg xmlns="http://www.w3.org/2000/svg" viewBox="-10 -30 120 200" width="500" height="500" role="img" aria-label="Brandy Crusta">
  <title>Brandy Crusta</title>
  <defs>
    <clipPath id="g1598090743-bowl"><path d="M19 52 C20 82 34 92 50 92 C66 92 80 82 81 52 Z"/></clipPath>
    <linearGradient id="g1598090743-liq" x1="0" x2="1" y1="0" y2="0">
      <stop offset="0" stop-color="#8a5b29"/>
      <stop offset="0.35" stop-color="#b87937"/>
      <stop offset="0.7" stop-color="#d1a87d"/>
      <stop offset="1" stop-color="#b87937"/>
    </linearGradient>
    <linearGradient id="g1598090743-glass" x1="0" x2="1" y1="0" y2="0">
      <stop offset="0" stop-color="#ffffff" stop-opacity="0.35"/>
      <stop offset="0.25" stop-color="#ffffff" stop-opacity="0.05"/>
      <stop offset="0.75" stop-color="#ffffff" stop-opacity="0.08"/>
      <stop offset="1" stop-color="#ffffff" stop-opacity="0.4"/>
    </linearGradient>
    <radialGradient id="g1598090743-bg" cx="0.5" cy="0.45" r="0.7">
      <stop offset="0" stop-color="#4a2f1b"/>
      <stop offset="1" stop-color="#1a110b"/>
    </radialGradient>
  </defs>
  <rect x="-10" y="-30" width="120" height="200" fill="url(#g1598090743-bg)"/>
  <ellipse cx="50" cy="158" rx="42" ry="5" fill="#000" opacity="0.35"/>
  <path d="M18 50 C19 82 34 94 50 94 C66 94 81 82 82 50 Z" fill="url(#g1598090743-glass)" opacity="0.55"/>
  <g clip-path="url(#g1598090743-bowl)">
    <rect x="0" y="73.6" width="100" height="28.4" fill="url(#g1598090743-liq)" opacity="0.74"/>
    
    
  </g>
  <path d="M18 50 C19 82 34 94 50 94 C66 94 81 82 82 50 Z" fill="none" stroke="#f3f3f3" stroke-opacity="0.85" stroke-width="1.6"/>
  <path d="M48 94 L48 136 M52 94 L52 136" fill="none" stroke="#f3f3f3" stroke-opacity="0.8" stroke-width="1.6"/><path d="M30 140 C30 134 70 134 70 140 C70 145 30 145 30 140 Z" fill="none" stroke="#f3f3f3" stroke-opacity="0.8" stroke-width="1.6"/>
  <path d="M18 50 C19 82 34 94 50 94 C66 94 81 82 82 50 Z" fill="none" stroke="#ffffff" stroke-opacity="0.35" stroke-width="4" stroke-dasharray="0 18 22 200" stroke-linecap="round"/>
  <path d="M18 50 H82" stroke="#fff3c4" stroke-width="3" opacity="0.9"/><circle cx="18.0" cy="49.0" r="1.2" fill="#fff3c4" opacity="0.95"/><circle cx="21.0" cy="50.0" r="1.7" fill="#fff3c4" opacity="0.95"/><circle cx="24.1" cy="51.0" r="1.2" fill="#fff3c4" opacity="0.95"/><circle cx="27.1" cy="49.0" r="1.7" fill="#fff3c4" opacity="0.95"/><circle cx="30.2" cy="50.0" r="1.2" fill="#fff3c4" opacity="0.95"/><circle cx="33.2" cy="51.0" r="1.7" fill="#fff3c4" opacity="0.95"/><circle cx="36.3" cy="49.0" r="1.2" fill="#fff3c4" opacity="0.95"/><circle cx="39.3" cy="50.0" r="1.7" fill="#fff3c4" opacity="0.95"/><circle cx="42.4" cy="51.0" r="1.2" fill="#fff3c4" opacity="0.95"/><circle cx="45.4" cy="49.0" r="1.7" fill="#fff3c4" opacity="0.95"/><circle cx="48.5" cy="50.0" r="1.2" fill="#fff3c4" opacity="0.95"/><circle cx="51.5" cy="51.0" r="1.7" fill="#fff3c4" opacity="0.95"/><circle cx="54.6" cy="49.0" r="1.2" fill="#fff3c4" opacity="0.95"/><circle cx="57.6" cy="50.0" r="1.7" fill="#fff3c4" opacity="0.95"/><circle cx="60.7" cy="51.0" r="1.2" fill="#fff3c4" opacity="0.95"/><circle cx="63.7" cy="49.0" r="1.7" fill="#fff3c4" opacity="0.95"/><circle cx="66.8" cy="50.0" r="1.2" fill="#fff3c4" opacity="0.95"/><circle cx="69.8" cy="51.0" r="1.7" fill="#fff3c4" opacity="0.95"/><circle cx="72.9" cy="49.0" r="1.2" fill="#fff3c4" opacity="0.95"/><circle cx="75.9" cy="50.0" r="1.7" fill="#fff3c4" opacity="0.95"/><circle cx="79.0" cy="51.0" r="1.2" fill="#fff3c4" opacity="0.95"/><circle cx="82.0" cy="49.0" r="1.7" fill="#fff3c4" opacity="0.95"/>
  <g transform="translate(78.0 50.0)"><path d="M-2 -14 C8 -10 -8 -2 2 4 C10 8 -2 14 6 18" fill="none" stroke="#f7941d" stroke-width="4" stroke-linecap="round"/><path d="M-2 -14 C8 -10 -8 -2 2 4 C10 8 -2 14 6 18" fill="none" stroke="#ffd59a" stroke-width="1.2" stroke-linecap="round"/></g>
</svg>