<svg xmlns="http://www.w3.org/2000/svg" viewBox="-10 -30 120 200" width="500" height="500" role="img" aria-label="Elderflower Collins">
  <title>Elderflower Collins</title>
  <defs>
    <clipPath id="g2036200487-bowl"><path d="M35 12 H65 L64 152 H36 Z"/></clipPath>
    <linearGradient id="g2036200487-liq" x1="0" x2="1" y1="0" y2="0">
      <stop offset="0" stop-color="#b4b69b"/>
      <stop offset="0.35" stop-color="#f0f2cf"/>
      <stop offset="0.7" stop-color="#f5f7e0"/>
      <stop offset="1" stop-color="#f0f2cf"/>
    </linearGradient>
    <linearGradient id="g2036200487-glass" x1="0" x2="1" y1="0" y2="0">
      <stop offset="0" stop-color="#ffffff" stop-opacity="0.35"/>
      <stop offset="0.25" stop-color="#ffffff" stop-opacity="0.05"/>
      <stop offset="0.75" stop-color="#ffffff" stop-opacity="0.08"/>
      <stop offset="1" stop-color="#ffffff" stop-opacity="0.4"/>
    </linearGradient>
    <radialGradient id="g2036200487-bg" cx="0.5" cy="0.45" r="0.7">
      <stop offset="0" stop-color="#4a2f1b"/>
      <stop offset="1" stop-color="#1a110b"/>
    </radialGradient>
  </defs>
  <rect x="-10" y="-30" width="120" height="200" fill="url(#g2036200487-bg)"/>
  <ellipse cx="50" cy="158" rx="42" ry="5" fill="#000" opacity="0.35"/>
  <path d="M34 10 H66 L65 154 H35 Z" fill="url(#g2036200487-glass)" opacity="0.55"/>
  <g clip-path="url(#g2036200487-bowl)">
    <rect x="0" y="49.2" width="100" height="108.8" fill="url(#g2036200487-liq)" opacity="0.35"/>
    
    <g transform="rotate(-12 44.2 59.2)"><rect x="36.2" y="51.2" width="16" height="16" rx="3" fill="#ffffff" opacity="0.45" stroke="#ffffff" stroke-opacity="0.8" stroke-width="1"/><path d="M39.2 54.2 L46.2 54.2" stroke="#ffffff" stroke-width="1.5" opacity="0.9"/></g><g transform="rotate(15 53.8 65.2)"><rect x="45.8" y="57.2" width="16" height="16" rx="3" fill="#ffffff" opacity="0.45" stroke="#ffffff" stroke-opacity="0.8" stroke-width="1"/><path d="M48.8 60.2 L55.8 60.2" stroke="#ffffff" stroke-width="1.5" opacity="0.9"/></g><g transform="rotate(5 49.0 83.2)"><rect x="41.0" y="75.2" width="16" height="16" rx="3" fill="#ffffff" opacity="0.45" stroke="#ffffff" stroke-opacity="0.8" stroke-width="1"/><path d="M44.0 78.2 L51.0 78.2" stroke="#ffffff" stroke-width="1.5" opacity="0.9"/></g><g transform="rotate(-20 54.2 93.2)"><rect x="46.2" y="85.2" width="16" height="16" rx="3" fill="#ffffff" opacity="0.45" stroke="#ffffff" stroke-opacity="0.8" stroke-width="1"/><path d="M49.2 88.2 L56.2 88.2" stroke="#ffffff" stroke-width="1.5" opacity="0.9"/></g>
  </g>
  <path d="M34 10 H66 L65 154 H35 Z" fill="none" stroke="#f3f3f3" stroke-opacity="0.85" stroke-width="1.6"/>
  <path d="M36 148 H64" fill="none" stroke="#f3f3f3" stroke-opacity="0.8" stroke-width="1.6"/>
  <path d="M34 10 H66 L65 154 H35 Z" fill="none" stroke="#ffffff" stroke-opacity="0.35" stroke-width="4" stroke-dasharray="0 18 22 200" stroke-linecap="round"/>
  
  <g transform="translate(64.0 10.0)"><circle r="12" fill="#f5e34a" stroke="#c9a21a" stroke-width="1.5"/><circle r="9" fill="#fff7b0"/><path d="M0 -9 V9 M-9 0 H9 M-6.4 -6.4 L6.4 6.4 M6.4 -6.4 L-6.4 6.4" stroke="#f0d93a" stroke-width="1.2"/></g>
</svg>