<svg xmlns="http://www.w3.org/2000/svg" viewBox="-10 -30 120 200" width="500" height="500" role="img" aria-label="Knickerbocker">
  <title>Knickerbocker</title>
  <defs>
    <clipPath id="g1285533237-bowl"><path d="M25 62 H75 L72 148 H28 Z"/></clipPath>
    <linearGradient id="g1285533237-liq" x1="0" x2="1" y1="0" y2="0">
      <stop offset="0" stop-color="#a36d3d"/>
      <stop offset="0.35" stop-color="#d99151"/>
      <stop offset="0.7" stop-color="#e6b88e"/>
      <stop offset="1" stop-color="#d99151"/>
    </linearGradient>
    <linearGradient id="g1285533237-glass" x1="0" x2="1" y1="0" y2="0">
      <stop offset="0" stop-color="#ffffff" stop-opacity="0.35"/>
      <stop offset="0.25" stop-color="#ffffff" stop-opacity="0.05"/>
      <stop offset="0.75" stop-color="#ffffff" stop-opacity="0.08"/>
      <stop offset="1" stop-color="#ffffff" stop-opacity="0.4"/>
    </linearGradient>
    <radialGradient id="g1285533237-bg" cx="0.5" cy="0.45" r="0.7">
      <stop offset="0" stop-color="#4a2f1b"/>
      <stop offset="1" stop-color="#1a110b"/>
    </radialGradient>
  </defs>
  <rect x="-10" y="-30" width="120" height="200" fill="url(#g1285533237-bg)"/>
  <ellipse cx="50" cy="158" rx="42" ry="5" fill="#000" opacity="0.35"/>
  <path d="M24 60 H76 L73 152 H27 Z" fill="url(#g1285533237-glass)" opacity="0.55"/>
  <g clip-path="url(#g1285533237-bowl)">
    <rect x="0" y="81.5" width="100" height="70.5" fill="url(#g1285533237-liq)" opacity="0.76"/>
    
    <rect x="34.4" y="85.5" width="5" height="4" rx="1" fill="#ffffff" opacity="0.55" transform="rotate(-20 36.9 87.5)"/><rect x="40.6" y="85.5" width="5" height="4" rx="1" fill="#ffffff" opacity="0.55" transform="rotate(3 43.1 87.5)"/><rect x="46.9" y="85.5" width="5" height="4" rx="1" fill="#ffffff" opacity="0.55" transform="rotate(-14 49.4 87.5)"/><rect x="53.1" y="85.5" width="5" height="4" rx="1" fill="#ffffff" opacity="0.55" transform="rotate(9 55.6 87.5)"/><rect x="59.4" y="85.5" width="5" height="4" rx="1" fill="#ffffff" opacity="0.55" transform="rotate(-8 61.9 87.5)"/><rect x="37.5" y="93.0" width="5" height="4" rx="1" fill="#ffffff" opacity="0.55" transform="rotate(17 40.0 95.0)"/><rect x="43.8" y="93.0" width="5" height="4" rx="1" fill="#ffffff" opacity="0.55" transform="rotate(0 46.3 95.0)"/><rect x="50.0" y="93.0" width="5" height="4" rx="1" fill="#ffffff" opacity="0.55" transform="rotate(-17 52.5 95.0)"/><rect x="56.2" y="93.0" width="5" height="4" rx="1" fill="#ffffff" opacity="0.55" transform="rotate(6 58.7 95.0)"/><rect x="62.5" y="93.0" width="5" height="4" rx="1" fill="#ffffff" opacity="0.55" transform="rotate(-11 65.0 95.0)"/><rect x="34.4" y="100.5" width="5" height="4" rx="1" fill="#ffffff" opacity="0.55" transform="rotate(14 36.9 102.5)"/><rect x="40.6" y="100.5" width="5" height="4" rx="1" fill="#ffffff" opacity="0.55" transform="rotate(-3 43.1 102.5)"/><rect x="46.9" y="100.5" width="5" height="4" rx="1" fill="#ffffff" opacity="0.55" transform="rotate(-20 49.4 102.5)"/><rect x="53.1" y="100.5" width="5" height="4" rx="1" fill="#ffffff" opacity="0.55" transform="rotate(3 55.6 102.5)"/><rect x="59.4" y="100.5" width="5" height="4" rx="1" fill="#ffffff" opacity="0.55" transform="rotate(-14 61.9 102.5)"/><rect x="37.5" y="108.0" width="5" height="4" rx="1" fill="#ffffff" opacity="0.55" transform="rotate(11 40.0 110.0)"/><rect x="43.8" y="108.0" width="5" height="4" rx="1" fill="#ffffff" opacity="0.55" transform="rotate(-6 46.3 110.0)"/><rect x="50.0" y="108.0" width="5" height="4" rx="1" fill="#ffffff" opacity="0.55" transform="rotate(17 52.5 110.0)"/><rect x="56.2" y="108.0" width="5" height="4" rx="1" fill="#ffffff" opacity="0.55" transform="rotate(0 58.7 110.0)"/><rect x="62.5" y="108.0" width="5" height="4" rx="1" fill="#ffffff" opacity="0.55" transform="rotate(-17 65.0 110.0)"/><rect x="34.4" y="115.5" width="5" height="4" rx="1" fill="#ffffff" opacity="0.55" transform="rotate(8 36.9 117.5)"/><rect x="40.6" y="115.5" width="5" height="4" rx="1" fill="#ffffff" opacity="0.55" transform="rotate(-9 43.1 117.5)"/><rect x="46.9" y="115.5" width="5" height="4" rx="1" fill="#ffffff" opacity="0.55" transform="rotate(14 49.4 117.5)"/><rect x="53.1" y="115.5" width="5" height="4" rx="1" fill="#ffffff" opacity="0.55" transform="rotate(-3 55.6 117.5)"/><rect x="59.4" y="115.5" width="5" height="4" rx="1" fill="#ffffff" opacity="0.55" transform="rotate(-20 61.9 117.5)"/><rect x="37.5" y="123.0" width="5" height="4" rx="1" fill="#ffffff" opacity="0.55" transform="rotate(5 40.0 125.0)"/><rect x="43.8" y="123.0" width="5" height="4" rx="1" fill="#ffffff" opacity="0.55" transform="rotate(-12 46.3 125.0)"/><rect x="50.0" y="123.0" width="5" height="4" rx="1" fill="#ffffff" opacity="0.55" transform="rotate(11 52.5 125.0)"/><rect x="56.2" y="123.0" width="5" height="4" rx="1" fill="#ffffff" opacity="0.55" transform="rotate(-6 58.7 125.0)"/><rect x="62.5" y="123.0" width="5" height="4" rx="1" fill="#ffffff" opacity="0.55" transform="rotate(17 65.0 125.0)"/><rect x="34.4" y="130.5" width="5" height="4" rx="1" fill="#ffffff" opacity="0.55" transform="rotate(2 36.9 132.5)"/><rect x="40.6" y="130.5" width="5" height="4" rx="1" fill="#ffffff" opacity="0.55" transform="rotate(-15 43.1 132.5)"/><rect x="46.9" y="130.5" width="5" height="4" rx="1" fill="#ffffff" opacity="0.55" transform="rotate(8 49.4 132.5)"/><rect x="53.1" y="130.5" width="5" height="4" rx="1" fill="#ffffff" opacity="0.55" transform="rotate(-9 55.6 132.5)"/><rect x="59.4" y="130.5" width="5" height="4" rx="1" fill="#ffffff" opacity="0.55" transform="rotate(14 61.9 132.5)"/>
  </g>
  <path d="M24 60 H76 L73 152 H27 Z" fill="none" stroke="#f3f3f3" stroke-opacity="0.85" stroke-width="1.6"/>
  <path d="M28 142 H72" fill="none" stroke="#f3f3f3" stroke-opacity="0.8" stroke-width="1.6"/>
  <path d="M24 60 H76 L73 152 H27 Z" fill="none" stroke="#ffffff" stroke-opacity="0.35" stroke-width="4" stroke-dasharray="0 18 22 200" stroke-linecap="round"/>
  
  <g transform="translate(50.0 70.0)"><circle cx="-6" cy="0" r="4.5" fill="#5b1133" stroke="#2a0a18" stroke-width="0.8"/><circle cx="4" cy="-3" r="4.5" fill="#7a1a44" stroke="#2a0a18" stroke-width="0.8"/><circle cx="0" cy="6" r="4" fill="#5b1133" stroke="#2a0a18" stroke-width="0.8"/></g><g transform="translate(56.0 60.0)"><circle r="12" fill="#f5e34a" stroke="#c9a21a" stroke-width="1.5"/><circle r="9" fill="#fff7b0"/><path d="M0 -9 V9 M-9 0 H9 M-6.4 -6.4 L6.4 6.4 M6.4 -6.4 L-6.4 6.4" stroke="#f0d93a" stroke-width="1.2"/></g>
</svg>