<svg xmlns="http://www.w3.org/2000/svg" viewBox="-10 -30 120 200" width="500" height="500" role="img" aria-label="Madras">
  <title>Madras</title>
  <defs>
    <clipPath id="g223467777-bowl"><path d="M31 22 H69 L67 150 H33 Z"/></clipPath>
    <linearGradient id="g223467777-liq" x1="0" x2="1" y1="0" y2="0">
      <stop offset="0" stop-color="#9b412b"/>
      <stop offset="0.35" stop-color="#cf5639"/>
      <stop offset="0.7" stop-color="#e0917e"/>
      <stop offset="1" stop-color="#cf5639"/>
    </linearGradient>
    <linearGradient id="g223467777-glass" x1="0" x2="1" y1="0" y2="0">
      <stop offset="0" stop-color="#ffffff" stop-opacity="0.35"/>
      <stop offset="0.25" stop-color="#ffffff" stop-opacity="0.05"/>
      <stop offset="0.75" stop-color="#ffffff" stop-opacity="0.08"/>
      <stop offset="1" stop-color="#ffffff" stop-opacity="0.4"/>
    </linearGradient>
    <radialGradient id="g223467777-bg" cx="0.5" cy="0.45" r="0.7">
      <stop offset="0" stop-color="#4a2f1b"/>
      <stop offset="1" stop-color="#1a110b"/>
    </radialGradient>
  </defs>
  <rect x="-10" y="-30" width="120" height="200" fill="url(#g223467777-bg)"/>
  <ellipse cx="50" cy="158" rx="42" ry="5" fill="#000" opacity="0.35"/>
  <path d="M30 20 H70 L68 152 H32 Z" fill="url(#g223467777-glass)" opacity="0.55"/>
  <g clip-path="url(#g223467777-bowl)">
    <rect x="0" y="30.1" width="100" height="125.9" fill="url(#g223467777-liq)" opacity="0.74"/>
    
    <g transform="rotate(-12 42.8 40.1)"><rect x="34.8" y="32.1" width="16" height="16" rx="3" fill="#ffffff" opacity="0.45" stroke="#ffffff" stroke-opacity="0.8" stroke-width="1"/><path d="M37.8 35.1 L44.8 35.1" stroke="#ffffff" stroke-width="1.5" opacity="0.9"/></g><g transform="rotate(15 54.8 46.1)"><rect x="46.8" y="38.1" width="16" height="16" rx="3" fill="#ffffff" opacity="0.45" stroke="#ffffff" stroke-opacity="0.8" stroke-width="1"/><path d="M49.8 41.1 L56.8 41.1" stroke="#ffffff" stroke-width="1.5" opacity="0.9"/></g><g transform="rotate(5 48.8 64.1)"><rect x="40.8" y="56.1" width="16" height="16" rx="3" fill="#ffffff" opacity="0.45" stroke="#ffffff" stroke-opacity="0.8" stroke-width="1"/><path d="M43.8 59.1 L50.8 59.1" stroke="#ffffff" stroke-width="1.5" opacity="0.9"/></g><g transform="rotate(-20 55.3 74.1)"><rect x="47.3" y="66.1" width="16" height="16" rx="3" fill="#ffffff" opacity="0.45" stroke="#ffffff" stroke-opacity="0.8" stroke-width="1"/><path d="M50.3 69.1 L57.3 69.1" stroke="#ffffff" stroke-width="1.5" opacity="0.9"/></g>
  </g>
  <path d="M30 20 H70 L68 152 H32 Z" fill="none" stroke="#f3f3f3" stroke-opacity="0.85" stroke-width="1.6"/>
  <path d="M33 146 H67" fill="none" stroke="#f3f3f3" stroke-opacity="0.8" stroke-width="1.6"/>
  <path d="M30 20 H70 L68 152 H32 Z" fill="none" stroke="#ffffff" stroke-opacity="0.35" stroke-width="4" stroke-dasharray="0 18 22 200" stroke-linecap="round"/>
  
  <g transform="translate(68.0 20.0)"><path d="M-13 0 A13 13 0 0 1 13 0 Z" fill="#f7941d" stroke="#c96a00" stroke-width="1.5"/><path d="M-9 0 A9 9 0 0 1 9 0 Z" fill="#ffc97a"/><path d="M0 0 V-9 M-6.4 -6.4 L0 0 L6.4 -6.4" stroke="#f7941d" stroke-width="1.2"/></g>
</svg>