<svg xmlns="http://www.w3.org/2000/svg" viewBox="-10 -30 120 200" width="500" height="500" role="img" aria-label="Midori Sour">
  <title>Midori Sour</title>
  <defs>
    <clipPath id="g630886285-bowl"><path d="M25 62 H75 L72 148 H28 Z"/></clipPath>
    <linearGradient id="g630886285-liq" x1="0" x2="1" y1="0" y2="0">
      <stop offset="0" stop-color="#70a75e"/>
      <stop offset="0.35" stop-color="#95de7d"/>
      <stop offset="0.7" stop-color="#baeaab"/>
      <stop offset="1" stop-color="#95de7d"/>
    </linearGradient>
    <linearGradient id="g630886285-glass" x1="0" x2="1" y1="0" y2="0">
      <stop offset="0" stop-color="#ffffff" stop-opacity="0.35"/>
      <stop offset="0.25" stop-color="#ffffff" stop-opacity="0.05"/>
      <stop offset="0.75" stop-color="#ffffff" stop-opacity="0.08"/>
      <stop offset="1" stop-color="#ffffff" stop-opacity="0.4"/>
    </linearGradient>
    <radialGradient id="g630886285-bg" cx="0.5" cy="0.45" r="0.7">
      <stop offset="0" stop-color="#4a2f1b"/>
      <stop offset="1" stop-color="#1a110b"/>
    </radialGradient>
  </defs>
  <rect x="-10" y="-30" width="120" height="200" fill="url(#g630886285-bg)"/>
  <ellipse cx="50" cy="158" rx="42" ry="5" fill="#000" opacity="0.35"/>
  <path d="M24 60 H76 L73 152 H27 Z" fill="url(#g630886285-glass)" opacity="0.55"/>
  <g clip-path="url(#g630886285-bowl)">
    <rect x="0" y="90.0" width="100" height="62.0" fill="url(#g630886285-liq)" opacity="0.55"/>
    
    <g transform="rotate(-12 40.6 100.0)"><rect x="32.6" y="92.0" width="16" height="16" rx="3" fill="#ffffff" opacity="0.45" stroke="#ffffff" stroke-opacity="0.8" stroke-width="1"/><path d="M35.6 95.0 L42.6 95.0" stroke="#ffffff" stroke-width="1.5" opacity="0.9"/></g><g transform="rotate(15 56.2 106.0)"><rect x="48.2" y="98.0" width="16" height="16" rx="3" fill="#ffffff" opacity="0.45" stroke="#ffffff" stroke-opacity="0.8" stroke-width="1"/><path d="M51.2 101.0 L58.2 101.0" stroke="#ffffff" stroke-width="1.5" opacity="0.9"/></g><g transform="rotate(5 48.4 124.0)"><rect x="40.4" y="116.0" width="16" height="16" rx="3" fill="#ffffff" opacity="0.45" stroke="#ffffff" stroke-opacity="0.8" stroke-width="1"/><path d="M43.4 119.0 L50.4 119.0" stroke="#ffffff" stroke-width="1.5" opacity="0.9"/></g><g transform="rotate(-20 56.9 134.0)"><rect x="48.9" y="126.0" width="16" height="16" rx="3" fill="#ffffff" opacity="0.45" stroke="#ffffff" stroke-opacity="0.8" stroke-width="1"/><path d="M51.9 129.0 L58.9 129.0" stroke="#ffffff" stroke-width="1.5" opacity="0.9"/></g>
  </g>
  <path d="M24 60 H76 L73 152 H27 Z" fill="none" stroke="#f3f3f3" stroke-opacity="0.85" stroke-width="1.6"/>
  <path d="M28 142 H72" fill="none" stroke="#f3f3f3" stroke-opacity="0.8" stroke-width="1.6"/>
  <path d="M24 60 H76 L73 152 H27 Z" fill="none" stroke="#ffffff" stroke-opacity="0.35" stroke-width="4" stroke-dasharray="0 18 22 200" stroke-linecap="round"/>
  
  <g transform="translate(74.0 60.0)"><path d="M0 -4 C2 -12 6 -16 10 -18" fill="none" stroke="#5a3a1a" stroke-width="1.5"/><circle r="6" fill="#8b1a2e" stroke="#4a0a14" stroke-width="1"/><circle cx="-2" cy="-2" r="1.6" fill="#ffffff" opacity="0.6"/></g><g transform="translate(56.0 60.0)"><circle r="12" fill="#f5e34a" stroke="#c9a21a" stroke-width="1.5"/><circle r="9" fill="#fff7b0"/><path d="M0 -9 V9 M-9 0 H9 M-6.4 -6.4 L6.4 6.4 M6.4 -6.4 L-6.4 6.4" stroke="#f0d93a" stroke-width="1.2"/></g>
</svg>