<svg xmlns="http://www.w3.org/2000/svg" viewBox="-10 -30 120 200" width="500" height="500" role="img" aria-label="Suffering Bastard">
  <title>Suffering Bastard</title>
  <defs>
    <clipPath id="g779602976-bowl"><path d="M25 62 H75 L72 148 H28 Z"/></clipPath>
    <linearGradient id="g779602976-liq" x1="0" x2="1" y1="0" y2="0">
      <stop offset="0" stop-color="#a18857"/>
      <stop offset="0.35" stop-color="#d6b574"/>
      <stop offset="0.7" stop-color="#e4cfa5"/>
      <stop offset="1" stop-color="#d6b574"/>
    </linearGradient>
    <linearGradient id="g779602976-glass" x1="0" x2="1" y1="0" y2="0">
      <stop offset="0" stop-color="#ffffff" stop-opacity="0.35"/>
      <stop offset="0.25" stop-color="#ffffff" stop-opacity="0.05"/>
      <stop offset="0.75" stop-color="#ffffff" stop-opacity="0.08"/>
      <stop offset="1" stop-color="#ffffff" stop-opacity="0.4"/>
    </linearGradient>
    <radialGradient id="g779602976-bg" cx="0.5" cy="0.45" r="0.7">
      <stop offset="0" stop-color="#4a2f1b"/>
      <stop offset="1" stop-color="#1a110b"/>
    </radialGradient>
  </defs>
  <rect x="-10" y="-30" width="120" height="200" fill="url(#g779602976-bg)"/>
  <ellipse cx="50" cy="158" rx="42" ry="5" fill="#000" opacity="0.35"/>
  <path d="M24 60 H76 L73 152 H27 Z" fill="url(#g779602976-glass)" opacity="0.55"/>
  <g clip-path="url(#g779602976-bowl)">
    <rect x="0" y="67.4" width="100" height="84.6" fill="url(#g779602976-liq)" opacity="0.58"/>
    
    <g transform="rotate(-12 40.6 77.4)"><rect x="32.6" y="69.4" width="16" height="16" rx="3" fill="#ffffff" opacity="0.45" stroke="#ffffff" stroke-opacity="0.8" stroke-width="1"/><path d="M35.6 72.4 L42.6 72.4" stroke="#ffffff" stroke-width="1.5" opacity="0.9"/></g><g transform="rotate(15 56.2 83.4)"><rect x="48.2" y="75.4" width="16" height="16" rx="3" fill="#ffffff" opacity="0.45" stroke="#ffffff" stroke-opacity="0.8" stroke-width="1"/><path d="M51.2 78.4 L58.2 78.4" stroke="#ffffff" stroke-width="1.5" opacity="0.9"/></g><g transform="rotate(5 48.4 101.4)"><rect x="40.4" y="93.4" width="16" height="16" rx="3" fill="#ffffff" opacity="0.45" stroke="#ffffff" stroke-opacity="0.8" stroke-width="1"/><path d="M43.4 96.4 L50.4 96.4" stroke="#ffffff" stroke-width="1.5" opacity="0.9"/></g><g transform="rotate(-20 56.9 111.4)"><rect x="48.9" y="103.4" width="16" height="16" rx="3" fill="#ffffff" opacity="0.45" stroke="#ffffff" stroke-opacity="0.8" stroke-width="1"/><path d="M51.9 106.4 L58.9 106.4" stroke="#ffffff" stroke-width="1.5" opacity="0.9"/></g>
  </g>
  <path d="M24 60 H76 L73 152 H27 Z" fill="none" stroke="#f3f3f3" stroke-opacity="0.85" stroke-width="1.6"/>
  <path d="M28 142 H72" fill="none" stroke="#f3f3f3" stroke-opacity="0.8" stroke-width="1.6"/>
  <path d="M24 60 H76 L73 152 H27 Z" fill="none" stroke="#ffffff" stroke-opacity="0.35" stroke-width="4" stroke-dasharray="0 18 22 200" stroke-linecap="round"/>
  
  <g transform="translate(74.0 60.0)"><path d="M0 6 V-18" stroke="#2e8b57" stroke-width="1.5"/><path d="M0 -4 C-8 -6 -10 -14 -6 -16 C-1 -14 0 -8 0 -4 Z" fill="#3fa36b" stroke="#1f6b40" stroke-width="1"/><path d="M0 -4 C8 -6 10 -14 6 -16 C1 -14 0 -8 0 -4 Z" fill="#3fa36b" stroke="#1f6b40" stroke-width="1"/><path d="M0 -12 C-6 -14 -7 -22 -3 -24 C0 -22 0 -16 0 -12 Z" fill="#4fbf7c" stroke="#1f6b40" stroke-width="1"/><path d="M0 -12 C6 -14 7 -22 3 -24 C0 -22 0 -16 0 -12 Z" fill="#4fbf7c" stroke="#1f6b40" stroke-width="1"/></g><g transform="translate(56.0 60.0)"><path d="M-13 0 A13 13 0 0 1 13 0 Z" fill="#f7941d" stroke="#c96a00" stroke-width="1.5"/><path d="M-9 0 A9 9 0 0 1 9 0 Z" fill="#ffc97a"/><path d="M0 0 V-9 M-6.4 -6.4 L0 0 L6.4 -6.4" stroke="#f7941d" stroke-width="1.2"/></g>
</svg>